<?xml version="1.0" encoding="UTF-8"?>
<svg xmlns="http://www.w3.org/2000/svg" id="Camada_1" data-name="Camada 1" viewBox="0 0 951.96 192.95">
  <defs>
    <style>.cls-1{fill:#1d1d1b;}</style>
  </defs>
  <path class="cls-1" d="M938.92,212.07H917.19V130.78H941l-2.9,47.65h1.3c3.48-21.44,15.36-29,35.64-29q15.78.29,22.89,10t7.1,33.32v19.37H983.25V195.16q0-15.93-4.57-22.67t-14.84-6.73q-11.31,0-18.11,10.36t-6.81,27.45Z" transform="translate(-53.02 -122.56)"></path>
  <path class="cls-1" d="M242.88,210c5.48,28.39,1.46,52.69-14.67,71.94-16,19.14-44.37,30.87-82.77,30.71-34.68-.22-61-12.17-76.51-32.35s-19.13-46.18-13.2-76.81c4.74-24.71,13.57-44.92,24.93-61.32q15.48,2.48,31.09,3.82a146.07,146.07,0,0,0-24,64.61c-2.48,19.81.88,36.05,11.12,48.34s26.4,19.1,47.58,19.19a76.35,76.35,0,0,1-21.07-34.23,108.3,108.3,0,0,1-4.38-36.51c1.41-24.21,7.75-42,17.79-54s22.36-18.09,37.93-19.12c15.41-1.05,28.32,4.64,40.22,17.68S237.9,184.06,242.88,210Zm-32.51,7.19c-1.94-15.74-6.05-27.81-11.92-36.38s-12.89-12.49-21.49-12c-17.94,1.07-27,15.54-27.11,45a85.37,85.37,0,0,0,7.36,33.66c5,11.73,11.74,20.6,19.94,26.44,12.2-3.68,21.34-10.79,27.21-20.91S212.08,230.91,210.37,217.15Z" transform="translate(-53.02 -122.56)"></path>
  <path class="cls-1" d="M336,211.71a139.55,139.55,0,0,1-38.82-5.65V187.8a98.25,98.25,0,0,0,35.34,6.81q13.19,0,19-1.59t5.79-5.65q0-3.48-6.52-4.92a98.78,98.78,0,0,0-15.86-2q-9.35-.51-18.61-1.81a33.78,33.78,0,0,1-15.79-6.16Q294,167.68,294,159q0-12,11.44-18.18t31.15-6.16q15.5,0,36.21,4.06v17.53Q352.95,152,339,152q-23.76,0-23.76,7c0,2.22,2.18,3.77,6.52,4.63a121.07,121.07,0,0,0,15.87,1.89q9.34.57,18.61,1.95a33.51,33.51,0,0,1,15.79,6.38q6.53,5,6.52,13.83,0,12.32-11.3,18.18T336,211.71Z" transform="translate(-53.02 -122.56)"></path>
  <path class="cls-1" d="M494.23,209.39H423.1V191.72h71.13Z" transform="translate(-53.02 -122.56)"></path>
  <path class="cls-1" d="M530.77,209.39H509V137H532.8l-2.9,26.73h1.3c3.48-21.44,15.36-29.05,35.64-29.05q13.75.3,20.79,7.61c4.68,4.87,7.55,9.94,8.62,21.44h1c3.48-21.44,15.36-29.05,35.64-29.05q15.78.3,22.89,10T662.88,178v31.44H641.15v-29q0-16.08-4.56-22.82T621.74,151q-11.29,0-18.1,10.36t-6.81,27.45v20.57H575.1v-29q0-16.08-4.57-22.82T555.69,151q-11.31,0-18.11,10.36t-6.81,27.45Z" transform="translate(-53.02 -122.56)"></path>
  <path class="cls-1" d="M699.86,211.71q-26.94,0-27-19.12a14.11,14.11,0,0,1,2.32-7.9,22.58,22.58,0,0,1,5.72-6,35.15,35.15,0,0,1,9.13-4.42q5.71-1.95,10.65-3.11T713,169q7.31-1,12-1.37t11.81-.95q-.15-7.82-4.86-11.08t-15-3.26q-16.8,0-34.91,7.83V142.46q21.15-7.82,40.71-7.82,35.78,0,35.78,33.9v40.85h-21.3L741,188h-1.3c-2.32,9.18-6.77,12.82-13.33,17.17S711,211.71,699.86,211.71ZM709,196.5q11.16,0,19.27-5.07t8.26-14.2q-22.32,1.74-28.25,3-12.6,2.76-12.6,8.69c0,2.32,1.2,4.16,3.62,5.51S704.93,196.5,709,196.5Z" transform="translate(-53.02 -122.56)"></path>
  <path class="cls-1" d="M871.12,211.71q-20.57,0-33.75-10.65t-13.18-27.89q0-17.37,12.89-27.95t34.19-10.58A80.5,80.5,0,0,1,904.73,142v18.54a66.6,66.6,0,0,0-33.46-9q-11.88,0-18.84,5.94a19.59,19.59,0,0,0-6.95,15.64,19.09,19.09,0,0,0,7.39,15.65q7.39,5.94,19.85,5.94,18.1,0,32-8.55v18.11a87,87,0,0,1-16.3,5.79A79.79,79.79,0,0,1,871.12,211.71Z" transform="translate(-53.02 -122.56)"></path>
  <path class="cls-1" d="M336,315a139.55,139.55,0,0,1-38.82-5.65V291.13a98.46,98.46,0,0,0,35.34,6.81q13.19,0,19-1.59c3.86-1.06,5.79-3,5.79-5.65q0-3.48-6.52-4.93a100,100,0,0,0-15.86-1.95q-9.35-.51-18.61-1.81a33.78,33.78,0,0,1-15.79-6.16Q294,271,294,262.3q0-12,11.44-18.17T336.58,238q15.5,0,36.21,4.05v17.53q-19.85-4.2-33.75-4.2-23.76,0-23.76,7c0,2.23,2.18,3.77,6.52,4.64a119.55,119.55,0,0,0,15.87,1.88q9.34.58,18.61,2a33.61,33.61,0,0,1,15.79,6.37q6.53,5,6.52,13.84,0,12.31-11.3,18.18T336,315Z" transform="translate(-53.02 -122.56)"></path>
  <path class="cls-1" d="M417,315.51q-13.62,0-17.67-5.65T395.25,288V264.12H385.11V248.33h11.44V235l20.57-2.9v16.26H437v15.79H417.12v19.52q0,11.3,1.81,14.41t10.79,3.12q1.74,0,7.25-.29v11.73A64.08,64.08,0,0,1,417,315.51Z" transform="translate(-53.02 -122.56)"></path>
  <path class="cls-1" d="M798.27,210.22q-13.62,0-17.67-5.65t-4.06-21.87V158.84H766.4V143.05h11.44V129.69l20.57-2.9v16.26h19.85v15.79H798.41v19.51q0,11.31,1.82,14.42T811,195.88q1.74,0,7.24-.29v11.73A63.75,63.75,0,0,1,798.27,210.22Z" transform="translate(-53.02 -122.56)"></path>
  <path class="cls-1" d="M515.19,240.29h21.73v72.43H513.16l2.9-26.73H514.9C511.43,307.43,499.5,315,479.12,315q-15.78-.3-22.89-10t-7.09-33.32V240.29h21.72v29q0,15.93,4.57,22.67t15,6.73q11.29,0,18-10.35t6.73-27.45Z" transform="translate(-53.02 -122.56)"></path>
  <path class="cls-1" d="M589,315q-17.82,0-29-10.8c-7.43-7.19-11.15-13.95-11.15-25.64q0-16.8,10.79-27.37t26.87-10.58q13.92,0,24.27,6.74a28.49,28.49,0,0,1,12.82,19.05h.58V230.08H646v82.64H623.59l3.19-23.62H625a30.83,30.83,0,0,1-12.6,18.77A39.29,39.29,0,0,1,589,315Zm6.08-17a27.83,27.83,0,0,0,17.89-5.94c5-4,7.46-6.59,7.46-13.26a18.62,18.62,0,0,0-7.46-15.5,28.31,28.31,0,0,0-17.89-5.79q-10.86,0-17.89,5.72t-7,15.57c0,6.76,2.34,9.42,7,13.33S587.81,298.09,595.05,298.09Z" transform="translate(-53.02 -122.56)"></path>
  <path class="cls-1" d="M672.69,251.49q-13.19,0-13.18-12t13.18-12.17q13.47,0,13.47,12.17T672.69,251.49Zm11.16,63.91H662.12V259.06h21.73Z" transform="translate(-53.02 -122.56)"></path>
  <path class="cls-1" d="M398.29,146.75q-13.19,0-13.18-12t13.18-12.16q13.47,0,13.47,12.16T398.29,146.75Zm11.15,63.91H387.71V154.32h21.73Z" transform="translate(-53.02 -122.56)"></path>
  <path class="cls-1" d="M775,304.46Q762.55,315,742,315t-33.11-10.58q-12.52-10.57-12.53-28t12.53-28Q721.41,238,742,238t33,10.57q12.46,10.58,12.46,28T775,304.46Zm-51.28-12.31q7,5.94,18.26,5.94t18.25-5.94a21.08,21.08,0,0,0,0-31.29q-7-5.94-18.25-5.94t-18.26,5.94a21.08,21.08,0,0,0,0,31.29Z" transform="translate(-53.02 -122.56)"></path>
</svg>
